<svg width="30" height="46" viewBox="0 0 30 46" version="1.1" xmlns="http://www.w3.org/2000/svg" xmlns:xlink="http://www.w3.org/1999/xlink">
<g id="Canvas" fill="none">
<g id="Arrow 2" filter="url(#filter0_d)">
<path d="M 2.76777 1.76777C 3.74408 0.791456 3.74408 -0.791456 2.76777 -1.76777L -13.1421 -17.6777C -14.1184 -18.654 -15.7014 -18.654 -16.6777 -17.6777C -17.654 -16.7014 -17.654 -15.1184 -16.6777 -14.1421L -2.53553 0L -16.6777 14.1421C -17.654 15.1184 -17.654 16.7014 -16.6777 17.6777C -15.7014 18.654 -14.1184 18.654 -13.1421 17.6777L 2.76777 1.76777ZM 0 2.5L 1 2.5L 1 -2.5L 0 -2.5L 0 2.5Z" transform="matrix(1 -2.42996e-08 2.42996e-08 1 22 19)" fill="black"/>
</g>
</g>
<defs>
<filter id="filter0_d" x="0.589844" y="0.590088" width="28.9099" height="44.8198" filterUnits="userSpaceOnUse" color-interpolation-filters="sRGB">
<feFlood flood-opacity="0" result="BackgroundImageFix"/>
<feColorMatrix in="SourceAlpha" type="matrix" values="0 0 0 0 0 0 0 0 0 0 0 0 0 0 0 0 0 0 255 0"/>
<feOffset dy="4"/>
<feGaussianBlur stdDeviation="2"/>
<feColorMatrix type="matrix" values="0 0 0 0 0.94902 0 0 0 0 0.788235 0 0 0 0 0.298039 0 0 0 1 0"/>
<feBlend mode="normal" in2="BackgroundImageFix" result="effect1_dropShadow"/>
<feBlend mode="normal" in="SourceGraphic" in2="effect1_dropShadow" result="shape"/>
</filter>

</defs>
</svg>

